# xmcd CD database file
#
# Track frame offsets:
#	150
#	10520
#	36864
#	54172
#	67634
#	84260
#	99523
#	113471
#	131055
#	149686
#
# Disc length: 2170 seconds
#
# Revision: 1
# Processed by: cddbd v1.5.2PL0 Copyright (c) Steve Scherf et al.
# Submitted via: CDex 1.51
#
DISCID=7108780a
DTITLE=Crystal Gayle - A Crystal Christmas
DYEAR=2006
DGENRE=Christmas
TTITLE0=Winter Wonderland
TTITLE1=The Christmas Song and Jingle Bells
TTITLE2=Have Yourself a Merry Little Christmas
TTITLE3=Silent Night
TTITLE4=Little Drummer Boy
TTITLE5=Oh Holy Night
TTITLE6=White Christmas
TTITLE7=I'll Be Home for Christmas
TTITLE8=Silver Bells
TTITLE9=Rudolph, the Red-Nosed Reindeer
EXTD=Laserlight 32 817 YEAR: 2006
EXTT0=
EXTT1=
EXTT2=
EXTT3=
EXTT4=
EXTT5=
EXTT6=
EXTT7=
EXTT8=
EXTT9=
PLAYORDER=
